Coordinates
version=1
nRows=29
nColumns=38
inDegrees=no

Units are S.I. units (second, meters, Newtons, ...)
If the header above contains a line with 'inDegrees', this indicates whether rotational values are in degrees (yes) or radians (no).

endheader
time	pelvis_tilt	pelvis_list	pelvis_rotation	pelvis_tx	pelvis_ty	pelvis_tz	hip_flexion_r	hip_adduction_r	hip_rotation_r	knee_angle_r	ankle_angle_r	subtalar_angle_r	mtp_angle_r	hip_flexion_l	hip_adduction_l	hip_rotation_l	knee_angle_l	ankle_angle_l	subtalar_angle_l	mtp_angle_l	lumbar_extension	lumbar_bending	lumbar_rotation	arm_flex_r	arm_add_r	arm_rot_r	elbow_flex_r	pro_sup_r	wrist_flex_r	wrist_dev_r	arm_flex_l	arm_add_l	arm_rot_l	elbow_flex_l	pro_sup_l	wrist_flex_l	wrist_dev_l
1.27	0.118354	-0.0471638	-0.00711361	0.807614	0.951817	-0.321538	0.455572	0.0624575	-0.420328	-0.474772	0.169893	0.0999991	-0.0007745	-0.404627	-0.0885451	-0.12008	-1.35954	-0.345657	0.0999991	-0.00241058	-0.407364	0.00227758	-0.251333	-0.676329	-0.231822	-0.332659	1.71397	1.29198	0.00315353	-0.0407649	0.002113	-0.419611	0.0393523	1.85994	1.74067	0.0955286	-0.0181185
1.28	0.134099	-0.061408	-0.0135841	0.806482	0.94762	-0.321011	0.431384	0.0771104	-0.404082	-0.548	0.162792	0.0999991	-0.0007745	-0.359509	-0.112443	-0.121743	-1.49426	-0.334929	0.0999991	-0.00241058	-0.431936	0.0148606	-0.221775	-0.640104	-0.246572	-0.324477	1.72267	1.29272	0.00315353	-0.0407649	-0.00964504	-0.403755	0.0420709	1.80698	1.74983	0.0955286	-0.0181185
1.29	0.146499	-0.0787038	-0.0214524	0.805283	0.943375	-0.32043	0.407638	0.0955404	-0.382928	-0.627489	0.173133	0.0999991	-0.0007745	-0.306416	-0.140015	-0.126211	-1.61821	-0.31776	0.0999991	-0.00241058	-0.452061	0.0296542	-0.188273	-0.599556	-0.265536	-0.314801	1.72926	1.29418	0.00315353	-0.0407649	-0.0234597	-0.385876	0.0410456	1.74616	1.76485	0.0955286	-0.0181185
1.3	0.155268	-0.097331	-0.02993	0.804083	0.939474	-0.319832	0.382367	0.116206	-0.358068	-0.70563	0.202874	0.0999991	-0.0007745	-0.244755	-0.168624	-0.129917	-1.72892	-0.293834	0.0999991	-0.00241058	-0.46715	0.0450441	-0.152429	-0.555225	-0.287926	-0.3035	1.73354	1.29625	0.00315353	-0.0407649	-0.0393614	-0.366976	0.0366686	1.67967	1.78589	0.0955286	-0.0181185
1.31	0.16061	-0.115237	-0.0380257	0.80291	0.936118	-0.319265	0.353104	0.136994	-0.331043	-0.775324	0.250324	0.0999991	-0.0007745	-0.174584	-0.195165	-0.129934	-1.8244	-0.263604	0.0999991	-0.00241058	-0.477201	0.0592161	-0.116137	-0.508084	-0.312773	-0.290693	1.7359	1.29867	0.00315353	-0.0407649	-0.0577235	-0.348192	0.029251	1.61079	1.81215	0.0955286	-0.0181185
1.32	0.163046	-0.130237	-0.0447243	0.801809	0.933408	-0.318843	0.31743	0.155411	-0.303724	-0.830727	0.310704	0.0999991	-0.0007745	-0.0966671	-0.21642	-0.124501	-1.90299	-0.228103	0.0999991	-0.00241058	-0.482569	0.0703255	-0.0813453	-0.45957	-0.338974	-0.27689	1.7373	1.30109	0.00315353	-0.0407649	-0.0793031	-0.330691	0.0190007	1.54363	1.84187	0.0955286	-0.0181185
1.33	0.163157	-0.140312	-0.0491988	0.800892	0.931466	-0.318659	0.273556	0.168926	-0.278164	-0.8678	0.377326	0.0999991	-0.0007745	-0.0123995	-0.229493	-0.113302	-1.96332	-0.18873	0.0999991	-0.00241058	-0.48368	0.0766656	-0.0497627	-0.411517	-0.365362	-0.263027	1.73914	1.30321	0.00315353	-0.0407649	-0.105159	-0.315537	0.006059	1.48277	1.87234	0.0955286	-0.0181185
1.34	0.161339	-0.143902	-0.0509817	0.800317	0.930412	-0.318692	0.22078	0.175381	-0.256403	-0.884522	0.442828	0.0999991	-0.0007745	0.0763807	-0.232269	-0.0974356	-2.00439	-0.147079	0.0999991	-0.00241058	-0.480792	0.076851	-0.0225905	-0.365972	-0.390787	-0.250357	1.74297	1.30496	0.00315353	-0.0407649	-0.136452	-0.303562	-0.00943233	1.43251	1.90023	0.0955286	-0.0181185
1.35	0.157638	-0.140075	-0.050052	0.800243	0.930297	-0.318892	0.159641	0.173376	-0.24027	-0.880794	0.50012	0.0999991	-0.0007745	0.167596	-0.223771	-0.0790752	-2.02554	-0.10483	0.0999991	-0.00241058	-0.473895	0.070013	-0.000353068	-0.32495	-0.414233	-0.240213	1.75017	1.30654	0.00315353	-0.0407649	-0.174169	-0.295244	-0.0272734	1.39629	1.92207	0.0955286	-0.0181185
1.36	0.151816	-0.128642	-0.0468194	0.800812	0.931067	-0.319254	0.0917736	0.162465	-0.231222	-0.858091	0.542977	0.0999991	-0.0007745	0.259077	-0.20431	-0.0609366	-2.02648	-0.0635989	0.0999991	-0.00241058	-0.462772	0.0559086	0.0171179	-0.290166	-0.434933	-0.233694	1.76169	1.30839	0.00315353	-0.0407649	-0.218843	-0.290625	-0.0471957	1.37609	1.93502	0.0955286	-0.0181185
1.37	0.143547	-0.110161	-0.0420151	0.802126	0.932606	-0.319795	0.0195125	0.143138	-0.230294	-0.819059	0.566357	0.0999991	-0.0007745	0.348594	-0.175404	-0.0457005	-2.0072	-0.0247396	0.0999991	-0.00241058	-0.447214	0.034944	0.0305615	-0.262799	-0.452449	-0.231392	1.77787	1.31103	0.00315353	-0.0407649	-0.270362	-0.289287	-0.0689001	1.37224	1.93743	0.0955286	-0.0181185
1.38	0.132661	-0.0858364	-0.0365386	0.804242	0.9348	-0.320507	-0.0545834	0.116632	-0.238114	-0.767155	0.566664	0.0999991	-0.0007745	0.433819	-0.139517	-0.0355356	-1.96786	0.0108952	0.0999991	-0.00241058	-0.427294	0.00812897	0.0410751	-0.243342	-0.466693	-0.233247	1.7984	1.31487	0.00315353	-0.0407649	-0.327891	-0.290411	-0.0921167	1.38348	1.92933	0.0955286	-0.0181185
1.39	0.119341	-0.0573734	-0.0313034	0.80716	0.937548	-0.3214	-0.128098	0.0847301	-0.254723	-0.706377	0.541904	0.0999991	-0.0007745	0.512322	-0.0996958	-0.0317798	-1.90871	0.0430656	0.0999991	-0.00241058	-0.403545	-0.0230116	0.0498778	-0.23157	-0.477869	-0.238578	1.82245	1.32013	0.00315353	-0.0407649	-0.389933	-0.292903	-0.116635	1.40726	1.91243	0.0955286	-0.0181185
1.4	0.104161	-0.0267999	-0.0271054	0.810797	0.940772	-0.322491	-0.198936	0.0495895	-0.27929	-0.641077	0.491849	0.0999991	-0.0007745	0.581656	-0.0591829	-0.0348268	-1.83005	0.0721119	0.0999991	-0.00241058	-0.376985	-0.0565537	0.0581079	-0.226634	-0.486363	-0.246279	1.84878	1.32686	0.00315353	-0.0407649	-0.454481	-0.295565	-0.14228	1.44028	1.88965	0.0955286	-0.0181185
1.41	0.087994	0.00369596	-0.0245387	0.814975	0.944401	-0.323762	-0.265322	0.0135586	-0.309882	-0.575833	0.418158	0.0999991	-0.0007745	0.639558	-0.0210601	-0.0442353	-1.73233	0.0988374	0.0999991	-0.00241058	-0.348972	-0.0903305	0.0666858	-0.227255	-0.492615	-0.255098	1.87598	1.33499	0.00315353	-0.0407649	-0.519214	-0.297287	-0.16884	1.4789	1.86449	0.0955286	-0.0181185
1.42	0.0718108	0.0319403	-0.0239537	0.819446	0.948337	-0.325132	-0.325733	-0.0210165	-0.343403	-0.515315	0.324442	0.0999991	-0.0007745	0.684181	0.0120415	-0.0589986	-1.61628	0.124301	0.0999991	-0.00241058	-0.320986	-0.122132	0.0762515	-0.231969	-0.497023	-0.2639	1.90261	1.34446	0.00315353	-0.0407649	-0.581721	-0.297218	-0.195972	1.51964	1.84022	0.0955286	-0.0181185
1.43	0.0565273	0.0559883	-0.0254675	0.823946	0.952433	-0.326481	-0.378858	-0.051998	-0.37582	-0.464102	0.216197	0.0999991	-0.0007745	0.714293	0.0381613	-0.0778825	-1.48319	0.149547	0.0999991	-0.00241058	-0.294436	-0.149922	0.0871493	-0.239363	-0.499889	-0.271833	1.92739	1.35521	0.00315353	-0.0407649	-0.639699	-0.294893	-0.223146	1.55946	1.81928	0.0955286	-0.0181185
1.44	0.042925	0.0743182	-0.0289922	0.828245	0.956506	-0.32767	-0.423647	-0.0776413	-0.402622	-0.426412	0.100512	0.0999991	-0.0007745	0.72941	0.056134	-0.0997572	-1.33527	0.175382	0.0999991	-0.00241058	-0.270554	-0.172063	0.0994282	-0.248262	-0.501427	-0.278378	1.9493	1.36719	0.00315353	-0.0407649	-0.691138	-0.290285	-0.249642	1.59606	1.80293	0.0955286	-0.0181185
1.45	0.0316553	0.0859925	-0.0342664	0.83218	0.960373	-0.328575	-0.459415	-0.0967371	-0.419463	-0.40581	-0.0145138	0.0999991	-0.0007745	0.729855	0.0656404	-0.123795	-1.17594	0.202159	0.0999991	-0.00241058	-0.250391	-0.187506	0.112839	-0.25781	-0.501809	-0.283279	1.96761	1.3802	0.00315353	-0.0407649	-0.734448	-0.283771	-0.274615	1.62793	1.7913	0.0955286	-0.0181185
1.46	0.0232869	0.0907637	-0.0408774	0.835661	0.963896	-0.329112	-0.485953	-0.108752	-0.423096	-0.404954	-0.120778	0.0999991	-0.0007745	0.716748	0.0671993	-0.149472	-1.01015	0.229588	0.0999991	-0.00241058	-0.234871	-0.195921	0.126823	-0.26748	-0.501211	-0.28643	1.98188	1.39383	0.00315353	-0.0407649	-0.768557	-0.276048	-0.297196	1.6544	1.78358	0.0955286	-0.0181185
1.47	0.0183359	0.0890893	-0.0482879	0.838634	0.966939	-0.329257	-0.503571	-0.113897	-0.412109	-0.425378	-0.211468	0.0999991	-0.0007745	0.691957	0.0620701	-0.176407	-0.844378	0.256647	0.0999991	-0.00241058	-0.224824	-0.197745	0.140533	-0.277016	-0.499844	-0.287764	1.99189	1.40736	0.00315353	-0.0407649	-0.792935	-0.268016	-0.31661	1.67555	1.77838	0.0955286	-0.0181185
1.48	0.017234	0.0821155	-0.0558773	0.841136	0.969484	-0.329066	-0.513006	-0.113119	-0.387333	-0.467369	-0.282359	0.0999991	-0.0007745	0.657986	0.0520794	-0.204101	-0.686311	0.281615	0.0999991	-0.00241058	-0.220951	-0.194109	0.152889	-0.286352	-0.497932	-0.287214	1.99761	1.41987	0.00315353	-0.0407649	-0.807566	-0.260665	-0.332263	1.69204	1.77421	0.0955286	-0.0181185
1.49	0.020254	0.0715282	-0.0629889	0.843194	0.971507	-0.328678	-0.515233	-0.108008	-0.351741	-0.529926	-0.332623	0.0999991	-0.0007745	0.617816	0.0394028	-0.231661	-0.544186	0.302229	0.0999991	-0.00241058	-0.223689	-0.186694	0.162701	-0.295546	-0.49568	-0.284724	1.99908	1.4304	0.00315353	-0.0407649	-0.812864	-0.254982	-0.343794	1.70486	1.76978	0.0955286	-0.0181185
1.5	0.027366	0.0593345	-0.0689909	0.844818	0.972988	-0.328291	-0.511181	-0.100645	-0.309954	-0.610907	-0.364664	0.0999991	-0.0007745	0.574656	0.0263545	-0.25758	-0.425765	0.315998	0.0999991	-0.00241058	-0.233035	-0.177495	0.168808	-0.304742	-0.493221	-0.280318	1.99636	1.43815	0.00315353	-0.0407649	-0.809541	-0.251872	-0.351071	1.71511	1.76426	0.0955286	-0.0181185
1.51	0.038103	0.0475951	-0.0733436	0.845979	0.973876	-0.328115	-0.50147	-0.0933025	-0.267258	-0.707257	-0.38297	0.0999991	-0.0007745	0.531675	0.0151552	-0.279752	-0.337291	0.320798	0.0999991	-0.00241058	-0.248396	-0.168537	0.170232	-0.314143	-0.490591	-0.274153	1.98945	1.44269	0.00315353	-0.0407649	-0.798458	-0.252091	-0.354156	1.72371	1.75734	0.0955286	-0.0181185
1.52	0.0515275	0.0381677	-0.0756592	0.846635	0.974084	-0.328318	-0.486245	-0.0880591	-0.228395	-0.815288	-0.392429	0.0999991	-0.0007745	0.491725	0.00764966	-0.295982	-0.282715	0.315705	0.0999991	-0.00241058	-0.268553	-0.161567	0.166302	-0.323977	-0.487727	-0.266522	1.97826	1.44403	0.00315353	-0.0407649	-0.780479	-0.256184	-0.353259	1.73121	1.74921	0.0955286	-0.0181185
1.53	0.0663398	0.0324244	-0.0757469	0.846767	0.973499	-0.328981	-0.465143	-0.0864626	-0.196652	-0.931005	-0.396804	0.0999991	-0.0007745	0.457062	0.00512952	-0.304455	-0.263219	0.301665	0.0999991	-0.00241058	-0.29177	-0.15786	0.156727	-0.334449	-0.484497	-0.257792	1.96261	1.44257	0.00315353	-0.0407649	-0.756344	-0.264432	-0.348698	1.73772	1.74038	0.0955286	-0.0181185
1.54	0.0810519	0.0311276	-0.0736342	0.846412	0.971994	-0.330091	-0.43741	-0.0893272	-0.173495	-1.05045	-0.3979	0.0999991	-0.0007745	0.429034	0.00826463	-0.303968	-0.277019	0.281745	0.0999991	-0.00241058	-0.316059	-0.158097	0.141617	-0.34568	-0.480748	-0.248301	1.94225	1.43891	0.00315353	-0.0407649	-0.726597	-0.276813	-0.340865	1.74291	1.73151	0.0955286	-0.0181185
1.55	0.0942431	0.0343973	-0.0695653	0.845654	0.969449	-0.331552	-0.402116	-0.0966746	-0.158629	-1.16994	-0.395618	0.0999991	-0.0007745	0.407773	0.0171116	-0.294166	-0.319406	0.260769	0.0999991	-0.00241058	-0.339503	-0.162369	0.121454	-0.357666	-0.476348	-0.23824	1.91693	1.43365	0.00315353	-0.0407649	-0.691561	-0.293002	-0.330211	1.74608	1.72328	0.0955286	-0.0181185
